<svg id="visual" viewBox="0 0 960 300" width="960" height="300" xmlns="http://www.w3.org/2000/svg" xmlns:xlink="http://www.w3.org/1999/xlink" version="1.1"><rect x="0" y="0" width="960" height="300" fill="#001220"></rect><path d="M0 220L22.8 215.2C45.7 210.3 91.3 200.7 137 194.7C182.7 188.7 228.3 186.3 274 188C319.7 189.7 365.3 195.3 411.2 197.7C457 200 503 199 548.8 198.5C594.7 198 640.3 198 686 201.5C731.7 205 777.3 212 823 213.7C868.7 215.3 914.3 211.7 937.2 209.8L960 208L960 301L937.2 301C914.3 301 868.7 301 823 301C777.3 301 731.7 301 686 301C640.3 301 594.7 301 548.8 301C503 301 457 301 411.2 301C365.3 301 319.7 301 274 301C228.3 301 182.7 301 137 301C91.3 301 45.7 301 22.8 301L0 301Z" fill="#de749a"></path><path d="M0 201L22.8 203.5C45.7 206 91.3 211 137 212.5C182.7 214 228.3 212 274 209C319.7 206 365.3 202 411.2 206C457 210 503 222 548.8 223.2C594.7 224.3 640.3 214.7 686 213.5C731.7 212.3 777.3 219.7 823 222.2C868.7 224.7 914.3 222.3 937.2 221.2L960 220L960 301L937.2 301C914.3 301 868.7 301 823 301C777.3 301 731.7 301 686 301C640.3 301 594.7 301 548.8 301C503 301 457 301 411.2 301C365.3 301 319.7 301 274 301C228.3 301 182.7 301 137 301C91.3 301 45.7 301 22.8 301L0 301Z" fill="#d55584"></path><path d="M0 238L22.8 236.7C45.7 235.3 91.3 232.7 137 234.8C182.7 237 228.3 244 274 244.2C319.7 244.3 365.3 237.7 411.2 235.2C457 232.7 503 234.3 548.8 234.2C594.7 234 640.3 232 686 230.2C731.7 228.3 777.3 226.7 823 226.7C868.7 226.7 914.3 228.3 937.2 229.2L960 230L960 301L937.2 301C914.3 301 868.7 301 823 301C777.3 301 731.7 301 686 301C640.3 301 594.7 301 548.8 301C503 301 457 301 411.2 301C365.3 301 319.7 301 274 301C228.3 301 182.7 301 137 301C91.3 301 45.7 301 22.8 301L0 301Z" fill="#cb2e6d"></path><path d="M0 243L22.8 246.5C45.7 250 91.3 257 137 260.3C182.7 263.7 228.3 263.3 274 263.3C319.7 263.3 365.3 263.7 411.2 264.2C457 264.7 503 265.3 548.8 261.3C594.7 257.3 640.3 248.7 686 246.5C731.7 244.3 777.3 248.7 823 251.8C868.7 255 914.3 257 937.2 258L960 259L960 301L937.2 301C914.3 301 868.7 301 823 301C777.3 301 731.7 301 686 301C640.3 301 594.7 301 548.8 301C503 301 457 301 411.2 301C365.3 301 319.7 301 274 301C228.3 301 182.7 301 137 301C91.3 301 45.7 301 22.8 301L0 301Z" fill="#b0295e"></path><path d="M0 279L22.8 278.7C45.7 278.3 91.3 277.7 137 275.5C182.7 273.3 228.3 269.7 274 270C319.7 270.3 365.3 274.7 411.2 276.8C457 279 503 279 548.8 276.2C594.7 273.3 640.3 267.7 686 266.8C731.7 266 777.3 270 823 270.5C868.7 271 914.3 268 937.2 266.5L960 265L960 301L937.2 301C914.3 301 868.7 301 823 301C777.3 301 731.7 301 686 301C640.3 301 594.7 301 548.8 301C503 301 457 301 411.2 301C365.3 301 319.7 301 274 301C228.3 301 182.7 301 137 301C91.3 301 45.7 301 22.8 301L0 301Z" fill="#952350"></path></svg>